<svg xmlns="http://www.w3.org/2000/svg" viewBox="0 0 16 11.25" x="0px" y="0px"><g transform="translate(-4 -8)"><path d="M4.5,9h15a.5.5,0,0,0,0-1H4.5a.5.5,0,0,0,0,1Z"/><path d="M4.5,13h12a.5.5,0,0,0,0-1H4.5a.5.5,0,0,0,0,1Z"/><path d="M19.5,16H4.5a.5.5,0,0,0,0,1h15a.5.5,0,0,0,0-1Z"/></g><text x="0" y="24" fill="#000000" font-size="5px" font-weight="bold" font-family="'Helvetica Neue', Helvetica, Arial-Unicode, Arial, Sans-serif">Created by Dwiky Setiawan</text><text x="0" y="29" fill="#000000" font-size="5px" font-weight="bold" font-family="'Helvetica Neue', Helvetica, Arial-Unicode, Arial, Sans-serif">from the Noun Project</text></svg>